<?xml version="1.0" standalone="no"?><!DOCTYPE svg PUBLIC "-//W3C//DTD SVG 1.1//EN" "http://www.w3.org/Graphics/SVG/1.1/DTD/svg11.dtd"><svg t="1505901709439" class="icon" style="" viewBox="0 0 1000 1000" version="1.1" xmlns="http://www.w3.org/2000/svg" p-id="3185" xmlns:xlink="http://www.w3.org/1999/xlink" width="16" height="16"><defs><style type="text/css"></style></defs><path d="M500 0C223.875 0 0 223.8125 0 500c0 276.125 223.875 500 500 500 276.1875 0 500-223.875 500-500C1000 223.8125 776.1875 0 500 0zM500 937.5c-241.1875 0-437.5-196.3125-437.5-437.5 0-241.25 196.3125-437.5 437.5-437.5s437.5 196.25 437.5 437.5C937.5 741.1875 741.1875 937.5 500 937.5zM654.6875 301.0625 500 455.8125 345.3125 301.125 301.125 345.3125 455.75 500 301.0625 654.6875 345.25 698.875 500 544.1875 654.6875 698.875 698.875 654.6875 544.1875 500 698.875 345.25Z" p-id="3186"></path></svg>