<?xml version="1.0" standalone="no"?><!DOCTYPE svg PUBLIC "-//W3C//DTD SVG 1.1//EN" "http://www.w3.org/Graphics/SVG/1.1/DTD/svg11.dtd"><svg t="1505901474106" class="icon" style="" viewBox="0 0 1024 1024" version="1.1" xmlns="http://www.w3.org/2000/svg" p-id="2370" xmlns:xlink="http://www.w3.org/1999/xlink" width="16" height="16"><defs><style type="text/css"></style></defs><path d="M512 0C229.23 0 0 229.23 0 512s229.23 512 512 512c282.77 0 512-229.229 512-512S794.77 0 512 0zM512 960C264.576 960 64 759.424 64 512 64 264.577 264.576 64 512 64s448 200.576 448 448C960 759.424 759.424 960 512 960z" p-id="2371"></path><path d="M547.702 334.736c0 17.6-0.713 46.382-1.584 63.961l-10.414 210.055c-0.871 17.578-11.538 31.961-23.704 31.961s-22.833-14.383-23.705-31.961l-10.414-210.055c-0.872-17.579-1.584-46.361-1.584-63.961l0-46.6c0-17.6 14.4-32 32-32l7.405 0c17.6 0 32 14.4 32 32L547.702 334.736zM547.702 736c0 17.6-14.4 32-32 32l-7.405 0c-17.6 0-32-14.4-32-32l0-7.404c0-17.6 14.4-32 32-32l7.405 0c17.6 0 32 14.4 32 32L547.702 736z" p-id="2372" ></path></svg>