<?xml version="1.0" standalone="no"?><!DOCTYPE svg PUBLIC "-//W3C//DTD SVG 1.1//EN" "http://www.w3.org/Graphics/SVG/1.1/DTD/svg11.dtd"><svg t="1531992386582" class="icon" style="" viewBox="0 0 1024 1024" version="1.1" xmlns="http://www.w3.org/2000/svg" p-id="5305" xmlns:xlink="http://www.w3.org/1999/xlink" width="24" height="24"><defs><style type="text/css"></style></defs><path d="M143.798 512c0-17.01 6.504-33.519 18.51-45.024l325.679-325.679c12.007-12.006 28.516-19.01 45.525-19.01 17.009 0 33.018 7.004 45.024 19.01l37.521 37.521c12.007 11.506 19.011 28.016 19.011 45.025s-7.004 33.519-19.011 45.025l-146.58 147.081L821.67 415.949c36.02 0 58.532 30.017 58.532 64.035l0 64.035c0 34.019-22.513 64.035-58.532 64.035L469.477 608.054l146.58 146.58c12.007 12.007 19.011 28.516 19.011 45.525s-7.004 33.519-19.011 45.525l-37.521 37.521c-12.007 11.506-28.016 18.51-45.024 18.51-17.01 0-33.519-7.004-45.525-18.51L162.308 557.525C150.302 545.519 143.798 529.01 143.798 512z" p-id="5306"></path></svg>