<?xml version="1.0" standalone="no"?><!DOCTYPE svg PUBLIC "-//W3C//DTD SVG 1.1//EN" "http://www.w3.org/Graphics/SVG/1.1/DTD/svg11.dtd"><svg t="1531992471068" class="icon" style="" viewBox="0 0 1024 1024" version="1.1" xmlns="http://www.w3.org/2000/svg" p-id="5962" xmlns:xlink="http://www.w3.org/1999/xlink" width="24" height="24"><defs><style type="text/css"></style></defs><path d="M861.692 557.525 536.014 883.204c-12.007 11.506-28.516 18.51-45.525 18.51s-33.018-7.004-45.025-18.51l-37.521-37.521c-12.006-12.007-19.01-28.516-19.01-45.525s7.004-33.519 19.01-45.525l146.581-146.58L202.33 608.053c-36.02 0-58.532-30.017-58.532-64.035l0-64.035c0-34.019 22.512-64.035 58.532-64.035l352.193 0L407.943 268.867c-12.006-11.506-19.01-28.016-19.01-45.025s7.004-33.519 19.01-45.025l37.521-37.521c12.007-12.006 28.016-19.01 45.025-19.01s33.519 7.004 45.525 19.01l325.679 325.679c12.006 11.506 18.51 28.015 18.51 45.024S873.698 545.519 861.692 557.525z" p-id="5963"></path></svg>