<?xml version="1.0" standalone="no"?><!DOCTYPE svg PUBLIC "-//W3C//DTD SVG 1.1//EN" "http://www.w3.org/Graphics/SVG/1.1/DTD/svg11.dtd"><svg t="1531993056232" class="icon" style="" viewBox="0 0 1024 1024" version="1.1" xmlns="http://www.w3.org/2000/svg" p-id="7743" xmlns:xlink="http://www.w3.org/1999/xlink" width="24" height="24"><defs><style type="text/css"></style></defs><path d="M810.666667 512 952.32 512 741.12 723.2 529.92 512 724.053333 512C725.333333 446.293333 700.586667 381.013333 650.24 330.666667 550.4 230.826667 388.266667 230.826667 288.426667 330.666667 188.586667 430.506667 188.586667 593.066667 288.426667 692.906667 366.933333 771.413333 484.693333 788.053333 579.413333 742.826667L642.133333 805.546667C512 882.773333 341.333333 865.706667 227.84 753.066667 94.72 619.946667 95.146667 404.053333 228.266667 270.933333 362.666667 137.386667 577.28 136.96 710.826667 270.506667 777.386667 337.066667 810.666667 424.533333 810.666667 512Z" p-id="7744"></path></svg>