<?xml version="1.0" standalone="no"?><!DOCTYPE svg PUBLIC "-//W3C//DTD SVG 1.1//EN" "http://www.w3.org/Graphics/SVG/1.1/DTD/svg11.dtd"><svg t="1510288381097" class="icon" style="" viewBox="0 0 1024 1024" version="1.1" xmlns="http://www.w3.org/2000/svg" p-id="5495" xmlns:xlink="http://www.w3.org/1999/xlink" width="16" height="16"><defs><style type="text/css"></style></defs><path d="M288 608h448c17.7 0 32-14.3 32-32s-14.3-32-32-32H288c-17.7 0-32 14.3-32 32s14.3 32 32 32z m449 96H289c-17.7 0-32 14.3-32 32s14.3 32 32 32h448c17.7 0 32-14.3 32-32s-14.3-32-32-32zM896 64H128c-35.3 0-64 28.7-64 64v768c0 35.3 28.7 64 64 64h768c35.3 0 64-28.7 64-64V128c0-35.3-28.7-64-64-64z m-568 72h368v240H328V136z m560 752H136V136h120v248c0 35.4 28.7 64 64 64h384c35.4 0 64-28.7 64-64V136h120v752z" p-id="5496"></path></svg>